# xmcd
#
# Track frame offsets:
#	150
#	13367
#	27604
#	39758
#	54394
#	70573
#	85813
#	101576
#	114261
#	125176
#	134153
#	150966
#
# Disc length: 2175 seconds
# Revision: 10
# Processed by: cddbd v1.5.2PL0 Copyright (c) Steve Scherf et al.
# Submitted via: dBpowerAMP V12.0
#
DISCID=9b087d0c
DTITLE=George Strait - Troubadour
DYEAR=2008
DGENRE=Country
TTITLE0=Troubadour
TTITLE1=It Was Me
TTITLE2=Brothers of the Highway
TTITLE3=River of Love
TTITLE4=House of Cash
TTITLE5=I Saw God Today
TTITLE6=Give Me More Time
TTITLE7=When You’re in Love
TTITLE8=Make Her Fall in Love with Me Song
TTITLE9=West Texas Town
TTITLE10=House with No Doors
TTITLE11=If Heartaches Were Horses
EXTD=
EXTT0=
EXTT1=
EXTT2=
EXTT3=
EXTT4=
EXTT5=
EXTT6=
EXTT7=
EXTT8=
EXTT9=
EXTT10=
EXTT11=
PLAYORDER=
